<svg width="123" height="91" viewBox="0 0 123 91" fill="none" xmlns="http://www.w3.org/2000/svg">
<g filter="url(#filter0_d_448_85)">
<circle cx="77.0573" cy="45.0573" r="35" transform="rotate(20.546 77.0573 45.0573)" fill="#D37676"/>
</g>
<g filter="url(#filter1_d_448_85)">
<circle cx="45.0572" cy="45.0573" r="35" transform="rotate(20.546 45.0572 45.0573)" fill="#B0C5A4"/>
</g>
<g filter="url(#filter2_d_448_85)">
<circle cx="61.0573" cy="45.0573" r="35" transform="rotate(20.546 61.0573 45.0573)" fill="#222831"/>
</g>
<path d="M52.983 59.5455C50.6193 59.5455 48.6705 58.9602 47.1364 57.7898C45.6023 56.6193 44.5284 55.017 43.9148 52.983C43.3125 50.9375 43.2273 48.6193 43.6591 46.0284C44.0909 43.392 44.9602 41.0568 46.2671 39.0227C47.5739 36.9773 49.1875 35.375 51.108 34.2159C53.0398 33.0455 55.1477 32.4602 57.4318 32.4602C59.1932 32.4602 60.7273 32.8011 62.0341 33.483C63.3409 34.1534 64.3523 35.1023 65.0682 36.3295C65.7841 37.5455 66.125 38.9659 66.0909 40.5909H63.0227C62.9432 39.0795 62.3921 37.8068 61.3693 36.7727C60.358 35.7386 58.9262 35.2216 57.0739 35.2216C55.3807 35.2216 53.8125 35.6761 52.3693 36.5852C50.9262 37.483 49.7046 38.7386 48.7046 40.3523C47.7159 41.9545 47.0512 43.8125 46.7102 45.9261C46.3466 48.0511 46.3807 49.9318 46.8125 51.5682C47.2443 53.1932 48.0171 54.4659 49.1307 55.3864C50.2557 56.3068 51.6762 56.767 53.3921 56.767C54.5625 56.767 55.6648 56.5511 56.6989 56.1193C57.733 55.6761 58.6477 55.0511 59.4432 54.2443C60.2387 53.4261 60.8466 52.4659 61.2671 51.3636H64.3352C63.8239 52.9545 63.0171 54.3636 61.9148 55.5909C60.8239 56.8182 59.5171 57.7841 57.9943 58.4886C56.4716 59.1932 54.8012 59.5455 52.983 59.5455ZM79.8381 59.5455C77.5426 59.5455 75.6108 58.9659 74.0426 57.8068C72.4744 56.6364 71.3665 55.017 70.7188 52.9489C70.071 50.8807 69.9631 48.4943 70.3949 45.7898C70.8267 43.1534 71.6847 40.8352 72.9688 38.8352C74.2642 36.8239 75.8551 35.2614 77.7415 34.1477C79.6279 33.0227 81.679 32.4602 83.8949 32.4602C86.2017 32.4602 88.1335 33.0455 89.6904 34.2159C91.2585 35.3864 92.3665 37.0057 93.0142 39.0739C93.6733 41.142 93.7869 43.5341 93.3551 46.25C92.9233 48.875 92.0597 51.1875 90.7642 53.1875C89.4688 55.1761 87.8779 56.733 85.9915 57.858C84.1165 58.983 82.0654 59.5455 79.8381 59.5455ZM79.8722 56.767C81.7358 56.767 83.3949 56.2727 84.8494 55.2841C86.3154 54.2841 87.5256 52.9545 88.4801 51.2955C89.4347 49.625 90.0767 47.7898 90.4063 45.7898C90.7131 43.8807 90.679 42.125 90.304 40.5227C89.929 38.9205 89.2074 37.6364 88.1392 36.6705C87.071 35.7045 85.6506 35.2216 83.8779 35.2216C82.0256 35.2216 80.3665 35.7273 78.9006 36.7386C77.4347 37.7386 76.2244 39.0795 75.2699 40.7614C74.3154 42.4318 73.679 44.2614 73.3608 46.25C73.0426 48.1705 73.0654 49.9261 73.429 51.517C73.804 53.108 74.5256 54.3807 75.5938 55.3352C76.6733 56.2898 78.0994 56.767 79.8722 56.767Z" fill="white"/>
<defs>
<filter id="filter0_d_448_85" x="38.0478" y="10.0479" width="78.019" height="78.0188" filterUnits="userSpaceOnUse" color-interpolation-filters="sRGB">
<feFlood flood-opacity="0" result="BackgroundImageFix"/>
<feColorMatrix in="SourceAlpha" type="matrix" values="0 0 0 0 0 0 0 0 0 0 0 0 0 0 0 0 0 0 127 0" result="hardAlpha"/>
<feOffset dy="4"/>
<feGaussianBlur stdDeviation="2"/>
<feComposite in2="hardAlpha" operator="out"/>
<feColorMatrix type="matrix" values="0 0 0 0 0 0 0 0 0 0 0 0 0 0 0 0 0 0 0.25 0"/>
<feBlend mode="normal" in2="BackgroundImageFix" result="effect1_dropShadow_448_85"/>
<feBlend mode="normal" in="SourceGraphic" in2="effect1_dropShadow_448_85" result="shape"/>
</filter>
<filter id="filter1_d_448_85" x="6.04776" y="10.0479" width="78.019" height="78.0188" filterUnits="userSpaceOnUse" color-interpolation-filters="sRGB">
<feFlood flood-opacity="0" result="BackgroundImageFix"/>
<feColorMatrix in="SourceAlpha" type="matrix" values="0 0 0 0 0 0 0 0 0 0 0 0 0 0 0 0 0 0 127 0" result="hardAlpha"/>
<feOffset dy="4"/>
<feGaussianBlur stdDeviation="2"/>
<feComposite in2="hardAlpha" operator="out"/>
<feColorMatrix type="matrix" values="0 0 0 0 0 0 0 0 0 0 0 0 0 0 0 0 0 0 0.25 0"/>
<feBlend mode="normal" in2="BackgroundImageFix" result="effect1_dropShadow_448_85"/>
<feBlend mode="normal" in="SourceGraphic" in2="effect1_dropShadow_448_85" result="shape"/>
</filter>
<filter id="filter2_d_448_85" x="22.0478" y="10.0479" width="78.019" height="78.0188" filterUnits="userSpaceOnUse" color-interpolation-filters="sRGB">
<feFlood flood-opacity="0" result="BackgroundImageFix"/>
<feColorMatrix in="SourceAlpha" type="matrix" values="0 0 0 0 0 0 0 0 0 0 0 0 0 0 0 0 0 0 127 0" result="hardAlpha"/>
<feOffset dy="4"/>
<feGaussianBlur stdDeviation="2"/>
<feComposite in2="hardAlpha" operator="out"/>
<feColorMatrix type="matrix" values="0 0 0 0 0 0 0 0 0 0 0 0 0 0 0 0 0 0 0.25 0"/>
<feBlend mode="normal" in2="BackgroundImageFix" result="effect1_dropShadow_448_85"/>
<feBlend mode="normal" in="SourceGraphic" in2="effect1_dropShadow_448_85" result="shape"/>
</filter>
</defs>
</svg>
